HIERARCHY
ROOT root     
{
	OFFSET 0.0000 0.0000 0.0000
	CHANNELS 6 Xposition Yposition Zposition Zrotation Yrotation Xrotation
	JOINT pelvis   
	{
		OFFSET 0.0000 0.0000 0.0000
		CHANNELS 3 Zrotation Yrotation Xrotation
		JOINT thorax   
		{
			OFFSET 0.0000 23.0750 -5.0000
			CHANNELS 3 Zrotation Yrotation Xrotation
			JOINT rclavicle
			{
				OFFSET 0.0000 28.0009 0.0000
				CHANNELS 3 Zrotation Yrotation Xrotation
				JOINT rhumerus 
				{
					OFFSET -18.5725 5.5939 0.0000
					CHANNELS 3 Zrotation Yrotation Xrotation
					JOINT rradius  
					{
						OFFSET -24.8459 0.0000 0.0000
						CHANNELS 3 Zrotation Yrotation Xrotation
						JOINT rhand    
						{
							OFFSET -24.5477 0.0000 0.0000
							CHANNELS 3 Zrotation Yrotation Xrotation
							End Site
							{
								OFFSET -8.1826 0.0000 0.0000
							}
						}
					}
				}
			}
			JOINT lclavicle
			{
				OFFSET 0.0000 28.0009 0.0000
				CHANNELS 3 Zrotation Yrotation Xrotation
				JOINT lhumerus 
				{
					OFFSET 18.5725 5.5939 0.0000
					CHANNELS 3 Zrotation Yrotation Xrotation
					JOINT lradius  
					{
						OFFSET 24.8459 0.0000 0.0000
						CHANNELS 3 Zrotation Yrotation Xrotation
						JOINT lhand    
						{
							OFFSET 24.5477 0.0000 0.0000
							CHANNELS 3 Zrotation Yrotation Xrotation
							End Site
							{
								OFFSET 8.1826 0.0000 0.0000
							}
						}
					}
				}
			}
			JOINT head     
			{
				OFFSET 0.0000 35.2030 0.0000
				CHANNELS 3 Zrotation Yrotation Xrotation
				End Site
				{
					OFFSET 0.0000 11.7343 0.0000
				}
			}
		}
		JOINT rfemur   
		{
			OFFSET -8.2817 0.0000 0.0000
			CHANNELS 3 Zrotation Yrotation Xrotation
			JOINT rtibia   
			{
				OFFSET 0.0000 -43.3627 0.0000
				CHANNELS 3 Zrotation Yrotation Xrotation
				JOINT rfoot    
				{
					OFFSET 0.0000 -38.2947 0.0000
					CHANNELS 3 Zrotation Yrotation Xrotation
					JOINT rtoes    
					{
						OFFSET 0.0000 0.0000 16.6054
						CHANNELS 3 Zrotation Yrotation Xrotation
						End Site
						{
							OFFSET 0.0000 0.0000 5.5351
						}
					}
				}
			}
		}
		JOINT lfemur   
		{
			OFFSET 8.2817 0.0000 0.0000
			CHANNELS 3 Zrotation Yrotation Xrotation
			JOINT ltibia   
			{
				OFFSET 0.0000 -43.3627 0.0000
				CHANNELS 3 Zrotation Yrotation Xrotation
				JOINT lfoot    
				{
					OFFSET 0.0000 -38.2947 0.0000
					CHANNELS 3 Zrotation Yrotation Xrotation
					JOINT ltoes    
					{
						OFFSET 0.0000 0.0000 16.6054
						CHANNELS 3 Zrotation Yrotation Xrotation
						End Site
						{
							OFFSET 0.0000 0.0000 5.5351
						}
					}
				}
			}
		}
	}
}
MOTION
Frames: 23
Frame Time: .0333333
-74.696 77.354 -6.7062 177.893 87.0746 -166.329 0 -0 0 0.957913 -12.3743 22.7389 22.176 -12.3092 4.00908e-05 57.1693 -14.4716 0.61561 -0 48.9187 -0 0.933594 5.44486 0.0444001 -17.415 12.2969 0.000160704 -46.8525 6.06621 4.64541 -180 -79.2871 180 -0.378099 5.10177 -0.0168 2.12494 3.76132 -15.4607 6.25429 -8.27934 -54.9866 -0 -0 48.4111 6.10374e-07 -2.71149 1.05049 -0.0496991 -1.44878e-08 -5.28689 4.10174 10.7613 -12.2332 -0 -0 55.887 -3.59859e-06 1.50285 -7.00131 -0.1832 1.60536e-06 -69.7458 
-73.917 77.39 -6.5937 176.754 87.0851 -167.392 0 -0 0 1.21486 -12.4224 22.6186 22.202 -12.2474 -0.000142821 57.1092 -14.0466 0.45645 -0 49.1153 -0 0.865502 5.3765 0.0406002 -17.3554 12.2178 -2.2699e-06 -47.3795 6.42353 4.86131 -180 -79.9596 180 -0.634601 5.11551 -0.0283 2.25861 3.6346 -15.3174 6.21702 -8.21572 -54.7269 -0 -0 48.9729 -1.13404e-08 -2.86326 0.0146 -0.000699997 -1.3078e-09 -5.10374 4.2855 10.3651 -11.9064 -0 -0 55.8744 -2.40421e-06 1.20606 -6.04099 -0.126899 2.46028e-08 -70.3653 
-73.153 77.437 -6.4884 175.291 87.1182 -168.761 0 -0 0 1.45467 -12.4639 22.4939 22.212 -12.1784 -1.20956e-05 57.0747 -13.5984 0.310743 -0 49.3236 -0 0.789906 5.3155 0.0367004 -17.2862 12.1223 1.24892e-05 -47.9121 6.78358 5.07268 -180 -80.7088 180 -0.883608 5.11483 -0.0395009 2.38375 3.51334 -15.2014 6.13672 -8.11326 -54.4507 -0 -0 49.463 7.08025e-07 -3.02553 -0.864911 0.0456991 -6.30173e-08 -4.89782 4.4221 9.93636 -11.6131 -0 -0 55.8479 2.35565e-07 0.963496 -5.05875 -0.0849997 -2.66082e-08 -70.9952 
-72.402 77.495 -6.39 173.564 87.1609 -170.381 0 -0 0 1.68214 -12.4991 22.3661 22.2025 -12.1019 6.58341e-05 57.0636 -13.1325 0.187262 -0 49.5522 -0 0.709696 5.26221 0.0325996 -17.2109 12.0104 0.000113429 -48.4441 7.1464 5.27488 -180 -81.5283 180 -1.11791 5.09673 -0.0498013 2.4941 3.39866 -15.1195 6.02069 -7.97417 -54.1685 -0 -0 49.8931 -9.25828e-07 -3.18466 -1.59634 0.0888002 -2.75169e-08 -4.63549 4.51578 9.4836 -11.3603 -0 -0 55.8214 -3.34268e-07 0.770999 -4.03429 -0.0542003 -3.79481e-07 -71.6261 
-71.668 77.564 -6.2972 171.674 87.215 -172.147 0 -0 0 1.90367 -12.5289 22.2369 22.1686 -12.0143 0.00012315 57.0733 -12.6483 0.100326 -0 49.802 -0 0.626796 5.21966 0.0286001 -17.1322 11.8855 4.71524e-05 -48.9747 7.51211 5.46344 -180 -82.4212 180 -1.33043 5.06007 -0.0588006 2.58644 3.29075 -15.0725 5.87893 -7.80172 -53.8864 -0 -0 50.2639 -4.40794e-07 -3.33282 -2.19929 0.128 -3.36945e-08 -4.34236 4.57316 9.01779 -11.1583 -0 -0 55.8139 5.07736e-07 0.622898 -2.9501 -0.0321004 -7.55158e-08 -72.227 
-70.95 77.645 -6.2093 169.671 87.2606 -174.02 0 -0 0 2.12066 -12.5539 22.1119 22.1127 -11.9169 4.73047e-05 57.0975 -12.1528 0.0533399 -0 50.0887 -0 0.547902 5.17816 0.0247998 -17.0496 11.7491 -3.44668e-05 -49.5046 7.87824 5.63836 -180 -83.3961 180 -1.51182 5.00514 -0.0661014 2.66279 3.18615 -15.0601 5.72082 -7.60121 -53.6042 -0 -0 50.5822 -2.03426e-06 -3.46456 -2.71458 0.164298 -9.85946e-08 -3.95698 4.60111 8.55295 -11.0127 -0 -0 55.8385 -8.43353e-08 0.506903 -1.78851 -0.0158002 -2.19301e-07 -72.7198 
-70.248 77.737 -6.1246 167.643 87.3319 -175.901 0 -0 0 2.33862 -12.5708 21.9885 22.0335 -11.8096 -2.00894e-06 57.129 -11.6478 0.0571755 -4.03549e-07 50.4178 -8.57239e-07 0.475701 5.13619 0.0212999 -16.9614 11.6004 1.61903e-05 -50.0352 8.24451 5.7985 -180 -84.4358 180 -1.65512 4.93418 -0.0713004 2.7273 3.08125 -15.0721 5.55834 -7.37802 -53.3237 -0 -0 50.8491 7.4054e-07 -3.58204 -3.18058 0.198998 -6.21201e-08 -3.47894 4.60912 8.10374 -10.9313 -0 -0 55.914 -1.83399e-08 0.413703 -0.543506 -0.00389992 -5.34799e-09 -73.0052 
-69.563 77.841 -6.041 165.714 87.3948 -177.675 0 -0 0 2.56115 -12.5834 21.8673 21.9288 -11.6919 4.59617e-05 57.1621 -11.135 0.122762 -0 50.7895 -0 0.4119 5.09889 0.0183001 -16.8694 11.4467 9.27747e-06 -50.563 8.60473 5.94443 -180 -85.5385 180 -1.75906 4.85248 -0.0744974 2.78733 2.97337 -15.1018 5.40171 -7.13609 -53.0399 -0 -0 51.0519 -3.48146e-06 -3.69346 -3.61718 0.2333 -4.90864e-08 -3.07004 4.60682 7.68364 -10.9227 -0 -0 56.0531 1.10401e-08 0.343496 0.775204 0.00460005 2.22628e-08 -73.028 
-68.893 77.957 -5.9575 163.892 87.4628 -179.332 0 -0 0 2.78683 -12.5869 21.7498 21.8065 -11.5706 3.17284e-05 57.1925 -10.6175 0.25028 -0 51.2147 -0 0.360208 5.05153 0.0159005 -16.7669 11.2842 8.87135e-06 -51.09 8.96073 6.07977 -180 -86.7311 180 -1.81648 4.76457 -0.0755989 2.85184 2.8545 -15.1355 5.25784 -6.88412 -52.7477 -0 -0 51.1954 -3.03625e-06 -3.80295 -4.06868 0.270197 2.45822e-08 -2.59333 4.60071 7.30861 -10.9863 -0 -0 56.2673 -3.44307e-08 0.285899 2.15091 0.0107 -3.3023e-08 -72.5823 
-68.237 78.085 -5.8728 162.197 87.5441 179.146 0 -0 0 3.01423 -12.58 21.6352 21.6673 -11.4462 -3.83303e-05 57.2127 -10.0986 0.444579 -0 51.6914 -0 0.3207 4.99911 0.0140003 -16.6551 11.1198 -2.64109e-05 -51.6093 9.30425 6.20882 -180 -87.9711 180 -1.83147 4.67799 -0.0747986 2.93045 2.72168 -15.1619 5.1317 -6.62801 -52.4402 -0 -0 51.2726 -7.43767e-06 -3.91909 -4.54156 0.310803 8.62393e-08 -2.16968 4.59561 6.98935 -11.1255 -0 -0 56.5609 3.11026e-08 0.253197 3.54682 0.0156998 -1.87575e-07 -71.6712 
-67.595 78.222 -5.7865 160.601 87.6285 177.728 0 -0 0 3.2375 -12.5638 21.5253 21.5172 -11.3216 3.31784e-06 57.2179 -9.58276 0.702486 -0 52.2257 -0 0.294196 4.93812 0.0126999 -16.5318 10.9561 -7.65531e-05 -52.1181 9.63239 6.33695 180 -89.2524 180 -1.808 4.59934 -0.0726008 3.03188 2.57121 -15.174 5.02416 -6.37496 -52.1152 -0 -0 51.2836 -1.47044e-08 -4.04582 -5.03924 0.355999 -1.42556e-07 -1.83514 4.59191 6.73579 -11.3365 -0 -0 56.9341 4.27014e-08 0.257404 4.91631 0.0221003 -4.37682e-07 -70.2376 
-66.964 78.368 -5.6977 159.105 87.7072 176.411 0 -0 0 3.4561 -12.535 21.4192 21.3593 -11.2058 -2.04845e-05 57.2056 -9.06843 1.02327 -0 52.8185 -0 0.2772 4.86094 0.0118 -16.3956 10.7884 -7.58849e-05 -52.6073 9.95056 6.46754 6.42984e-06 -89.335 -6.5053e-06 -1.74826 4.53355 -0.069198 3.16084 2.39923 -15.1618 4.9371 -6.13262 -51.7641 -0 -0 51.2298 3.89497e-07 -4.18411 -5.56363 0.406396 3.14497e-08 -1.51688 4.59312 6.5562 -11.6195 -0 -0 57.3924 -1.26926e-07 0.307302 6.19726 0.0332002 2.93664e-07 -68.0754 
-66.342 78.522 -5.607 157.672 87.7693 175.152 0 -0 0 3.66165 -12.4942 21.3181 21.199 -11.0976 -9.12486e-06 57.1719 -8.5622 1.39941 -0 53.4678 -0 0.268305 4.77365 0.0112001 -16.2482 10.6247 1.32774e-05 -53.0688 10.2511 6.60728 4.07046e-06 -87.9158 -4.2214e-06 -1.66649 4.48694 -0.0653 3.32125 2.20656 -15.1248 4.86642 -5.9068 -51.3892 -0 -0 51.113 -1.12922e-06 -4.33113 -6.09222 0.460502 -5.18916e-08 -1.29766 4.59366 6.45415 -11.9685 -0 -0 57.9222 -1.90585e-07 0.432403 7.33797 0.0552002 -2.64535e-07 -65.4401 
-65.729 78.682 -5.515 156.168 87.8463 173.825 0 -0 0 3.84891 -12.4418 21.2243 21.0388 -11.0007 5.71766e-05 57.1185 -8.06517 1.82434 -0 54.1738 -0 0.263308 4.6758 0.0108004 -16.0926 10.4653 -6.09251e-05 -53.4926 10.5366 6.76034 0 -86.4641 0 -1.57295 4.46222 -0.0612982 3.51234 1.99487 -15.063 4.80806 -5.70377 -50.9876 -0 -0 50.9408 -5.04302e-06 -4.48031 -6.60668 0.516502 -1.93751e-08 -1.15568 4.58918 6.43076 -12.3785 -0 -0 58.5175 -5.01901e-07 0.651795 8.28468 0.0939006 -6.6973e-07 -62.3765 
-65.123 78.846 -5.4226 154.481 87.9036 172.308 0 -0 0 4.01285 -12.3753 21.1368 20.8832 -10.9138 -8.67239e-05 57.0412 -7.58178 2.28769 -0 54.933 -0 0.259103 4.57087 0.0103001 -15.9316 10.3135 1.6162e-05 -53.8695 10.8072 6.92922 0 -84.9909 0 -1.48256 4.46158 -0.0577979 3.73084 1.76767 -14.9792 4.75715 -5.5278 -50.5642 -0 -0 50.7242 -5.54413e-06 -4.62207 -7.08658 0.571501 -1.88434e-08 -1.08421 4.57312 6.48415 -12.8458 -0 -0 59.1592 5.00395e-07 0.987108 9.0071 0.154599 -1.02468e-06 -59.1913 
-64.525 79.014 -5.3298 152.729 87.9451 170.72 0 -0 0 4.15681 -12.2974 21.0564 20.7275 -10.8446 -6.18657e-05 56.9438 -7.10698 2.78778 -0 55.7413 -0 0.247805 4.45849 0.00960018 -15.7716 10.1656 -1.63999e-05 -54.1896 11.0723 7.11472 0 -83.5278 0 -1.40322 4.48306 -0.0549003 3.96727 1.52912 -14.8825 4.71355 -5.38084 -50.1241 -0 -0 50.4688 2.49753e-06 -4.74796 -7.51583 0.622405 -1.8424e-08 -1.05211 4.54554 6.61228 -13.3704 -0 -0 59.8457 -7.9631e-07 1.44227 9.45775 0.236997 -2.24712e-06 -55.7275 
-63.932 79.184 -5.2383 150.708 87.9888 168.863 0 -0 0 4.27251 -12.2075 20.9856 20.5753 -10.7855 -2.81037e-05 56.8252 -6.6486 3.31009 -0 56.5979 -0 0.229001 4.34715 0.00870016 -15.6154 10.0291 7.04216e-05 -54.4503 11.3292 7.31724 1.43604e-06 -82.0637 -1.65001e-06 -1.35263 4.52596 -0.0535009 4.21493 1.28618 -14.7791 4.66968 -5.26532 -49.6717 -0 -0 50.1868 5.98481e-06 -4.84728 -7.88267 0.666304 1.3688e-08 -1.0506 4.49542 6.80689 -13.9475 -0 -0 60.5517 -2.25908e-06 2.03054 9.65321 0.340596 -2.06884e-06 -52.5206 
-63.346 79.355 -5.1485 148.434 88.0139 166.747 0 -0 0 4.3626 -12.1063 20.9219 20.4238 -10.7364 -4.14636e-05 56.6886 -6.20558 3.84858 -0 57.4951 -0 0.198908 4.24014 0.00740025 -15.4702 9.90401 -2.70621e-05 -54.6472 11.582 7.53333 1.20026e-06 -80.6332 -1.41443e-06 -1.33927 4.58629 -0.053599 4.46276 1.04483 -14.6813 4.62477 -5.18039 -49.2154 -0 -0 49.8879 2.11778e-06 -4.91372 -8.18561 0.701298 2.85516e-08 -1.05239 4.42083 7.06121 -14.5785 -0 -0 61.2674 5.24518e-07 2.74425 9.59363 0.457702 -4.20505e-06 -49.6132 
-62.768 79.526 -5.0611 145.941 88.0086 164.405 0 -0 0 4.42855 -11.994 20.8673 20.2709 -10.6952 5.75017e-05 56.534 -5.77902 4.39579 -0 58.429 -0 0.155895 4.14225 0.00559983 -15.3365 9.79185 -3.99013e-05 -54.778 11.8358 7.76072 -1.24526e-06 -79.2375 1.03087e-06 -1.37063 4.6592 -0.0558017 4.7007 0.810613 -14.5953 4.57737 -5.12424 -48.7618 -0 -0 49.5779 -5.67373e-06 -4.94373 -8.43028 0.7266 -4.12163e-08 -1.03919 4.31872 7.36715 -15.2661 -0 -0 61.9773 -5.22984e-06 3.56959 9.29711 0.577395 -8.93929e-07 -47.0917 
-62.196 79.698 -4.9763 143.304 88.0227 161.927 0 -0 0 4.47272 -11.8706 20.8181 20.1157 -10.6597 -5.00137e-05 56.3648 -5.36905 4.94502 -5.87497e-07 59.3965 -1.03007e-06 0.0996011 4.05772 0.00350007 -15.2182 9.69444 2.1059e-05 -54.8499 12.091 7.99195 0 -77.8867 0 -1.44958 4.73942 -0.0599989 4.91924 0.588409 -14.5278 4.52715 -5.09422 -48.3148 -0 -0 49.2626 -8.07705e-06 -4.93826 -8.62977 0.742807 1.12539e-07 -0.998805 4.18751 7.71657 -16.0127 -0 -0 62.6744 1.8455e-06 4.4841 8.7902 0.686611 -6.02545e-06 -44.9639 
-61.633 79.869 -4.8939 140.523 87.9949 159.298 0 -0 0 4.49827 -11.7359 20.7762 19.9556 -10.6262 -1.05866e-05 56.1835 -4.97738 5.4892 -7.46794e-07 60.3921 -4.34575e-07 0.0316003 3.98984 0.00109966 -15.1172 9.61237 -2.75595e-05 -54.8656 12.3498 8.22117 -1.4441e-06 -76.5872 1.14018e-06 -1.57552 4.82241 -0.0663008 5.11122 0.381387 -14.4839 4.47478 -5.08615 -47.8772 -0 -0 48.9426 5.59005e-06 -4.90213 -8.80128 0.751787 -5.26365e-08 -0.92499 4.02744 8.10065 -16.8218 -0 -0 63.3439 -3.99264e-06 5.4609 8.11421 0.773111 -1.15027e-06 -43.2697 
-61.077 80.039 -4.8141 137.669 87.9728 156.601 0 -0 0 4.50659 -11.5897 20.7398 19.7878 -10.5924 -1.91982e-05 55.9896 -4.60511 6.02102 -4.5555e-07 61.4136 -7.67041e-07 -0.0447995 3.94136 -0.00149996 -15.0321 9.54701 -9.55751e-06 -54.8328 12.612 8.44187 1.03055e-06 -75.3364 -1.33489e-06 -1.74447 4.90385 -0.0746977 5.27228 0.191492 -14.4663 4.42026 -5.09674 -47.4508 -0 -0 48.6206 3.10509e-06 -4.84295 -8.96336 0.7563 -9.6085e-09 -0.825606 3.83822 8.51142 -17.694 -0 -0 63.9819 -9.2099e-07 6.46784 7.30425 0.825805 -5.45914e-06 -41.8863 
-60.53 80.207 -4.7362 134.858 87.9404 153.949 0 -0 0 4.50393 -11.4323 20.708 19.6119 -10.5597 -2.56117e-05 55.7853 -4.24957 6.53959 -7.89295e-07 62.4532 -4.78508e-07 -0.130599 3.91178 -0.00449992 -14.9606 9.49637 -4.22253e-05 -54.7635 12.8779 8.64714 -1.24648e-06 -74.1408 9.41707e-07 -1.94232 4.9787 -0.0844014 5.3989 0.0179927 -14.4728 4.3669 -5.12209 -47.0346 -0 -0 48.2946 5.05222e-06 -4.77115 -9.13382 0.759096 -1.92972e-08 -0.694696 3.62303 8.93935 -18.6344 -0 -0 64.5814 -1.86076e-06 7.47283 6.40759 0.838692 4.70055e-07 -40.77 
